<svg version="1.1" xmlns="http://www.w3.org/2000/svg" width="136px" height="136px" viewBox="0 0 136 136"  preserveAspectRatio="xMinYMin meet"><rect width="100%" height="100%" fill="white" cx="0" cy="0"/><path d="M2,2l4,0 0,4 -4,0 0,-4z M6,2l4,0 0,4 -4,0 0,-4z M10,2l4,0 0,4 -4,0 0,-4z M14,2l4,0 0,4 -4,0 0,-4z M18,2l4,0 0,4 -4,0 0,-4z M22,2l4,0 0,4 -4,0 0,-4z M26,2l4,0 0,4 -4,0 0,-4z M46,2l4,0 0,4 -4,0 0,-4z M50,2l4,0 0,4 -4,0 0,-4z M58,2l4,0 0,4 -4,0 0,-4z M74,2l4,0 0,4 -4,0 0,-4z M86,2l4,0 0,4 -4,0 0,-4z M90,2l4,0 0,4 -4,0 0,-4z M106,2l4,0 0,4 -4,0 0,-4z M110,2l4,0 0,4 -4,0 0,-4z M114,2l4,0 0,4 -4,0 0,-4z M118,2l4,0 0,4 -4,0 0,-4z M122,2l4,0 0,4 -4,0 0,-4z M126,2l4,0 0,4 -4,0 0,-4z M130,2l4,0 0,4 -4,0 0,-4z M2,6l4,0 0,4 -4,0 0,-4z M26,6l4,0 0,4 -4,0 0,-4z M38,6l4,0 0,4 -4,0 0,-4z M42,6l4,0 0,4 -4,0 0,-4z M54,6l4,0 0,4 -4,0 0,-4z M58,6l4,0 0,4 -4,0 0,-4z M74,6l4,0 0,4 -4,0 0,-4z M82,6l4,0 0,4 -4,0 0,-4z M90,6l4,0 0,4 -4,0 0,-4z M98,6l4,0 0,4 -4,0 0,-4z M106,6l4,0 0,4 -4,0 0,-4z M130,6l4,0 0,4 -4,0 0,-4z M2,10l4,0 0,4 -4,0 0,-4z M10,10l4,0 0,4 -4,0 0,-4z M14,10l4,0 0,4 -4,0 0,-4z M18,10l4,0 0,4 -4,0 0,-4z M26,10l4,0 0,4 -4,0 0,-4z M50,10l4,0 0,4 -4,0 0,-4z M78,10l4,0 0,4 -4,0 0,-4z M86,10l4,0 0,4 -4,0 0,-4z M90,10l4,0 0,4 -4,0 0,-4z M94,10l4,0 0,4 -4,0 0,-4z M98,10l4,0 0,4 -4,0 0,-4z M106,10l4,0 0,4 -4,0 0,-4z M114,10l4,0 0,4 -4,0 0,-4z M118,10l4,0 0,4 -4,0 0,-4z M122,10l4,0 0,4 -4,0 0,-4z M130,10l4,0 0,4 -4,0 0,-4z M2,14l4,0 0,4 -4,0 0,-4z M10,14l4,0 0,4 -4,0 0,-4z M14,14l4,0 0,4 -4,0 0,-4z M18,14l4,0 0,4 -4,0 0,-4z M26,14l4,0 0,4 -4,0 0,-4z M34,14l4,0 0,4 -4,0 0,-4z M50,14l4,0 0,4 -4,0 0,-4z M54,14l4,0 0,4 -4,0 0,-4z M62,14l4,0 0,4 -4,0 0,-4z M70,14l4,0 0,4 -4,0 0,-4z M74,14l4,0 0,4 -4,0 0,-4z M86,14l4,0 0,4 -4,0 0,-4z M98,14l4,0 0,4 -4,0 0,-4z M106,14l4,0 0,4 -4,0 0,-4z M114,14l4,0 0,4 -4,0 0,-4z M118,14l4,0 0,4 -4,0 0,-4z M122,14l4,0 0,4 -4,0 0,-4z M130,14l4,0 0,4 -4,0 0,-4z M2,18l4,0 0,4 -4,0 0,-4z M10,18l4,0 0,4 -4,0 0,-4z M14,18l4,0 0,4 -4,0 0,-4z M18,18l4,0 0,4 -4,0 0,-4z M26,18l4,0 0,4 -4,0 0,-4z M34,18l4,0 0,4 -4,0 0,-4z M38,18l4,0 0,4 -4,0 0,-4z M58,18l4,0 0,4 -4,0 0,-4z M66,18l4,0 0,4 -4,0 0,-4z M70,18l4,0 0,4 -4,0 0,-4z M78,18l4,0 0,4 -4,0 0,-4z M82,18l4,0 0,4 -4,0 0,-4z M86,18l4,0 0,4 -4,0 0,-4z M94,18l4,0 0,4 -4,0 0,-4z M106,18l4,0 0,4 -4,0 0,-4z M114,18l4,0 0,4 -4,0 0,-4z M118,18l4,0 0,4 -4,0 0,-4z M122,18l4,0 0,4 -4,0 0,-4z M130,18l4,0 0,4 -4,0 0,-4z M2,22l4,0 0,4 -4,0 0,-4z M26,22l4,0 0,4 -4,0 0,-4z M46,22l4,0 0,4 -4,0 0,-4z M50,22l4,0 0,4 -4,0 0,-4z M54,22l4,0 0,4 -4,0 0,-4z M58,22l4,0 0,4 -4,0 0,-4z M82,22l4,0 0,4 -4,0 0,-4z M90,22l4,0 0,4 -4,0 0,-4z M106,22l4,0 0,4 -4,0 0,-4z M130,22l4,0 0,4 -4,0 0,-4z M2,26l4,0 0,4 -4,0 0,-4z M6,26l4,0 0,4 -4,0 0,-4z M10,26l4,0 0,4 -4,0 0,-4z M14,26l4,0 0,4 -4,0 0,-4z M18,26l4,0 0,4 -4,0 0,-4z M22,26l4,0 0,4 -4,0 0,-4z M26,26l4,0 0,4 -4,0 0,-4z M34,26l4,0 0,4 -4,0 0,-4z M42,26l4,0 0,4 -4,0 0,-4z M50,26l4,0 0,4 -4,0 0,-4z M58,26l4,0 0,4 -4,0 0,-4z M66,26l4,0 0,4 -4,0 0,-4z M74,26l4,0 0,4 -4,0 0,-4z M82,26l4,0 0,4 -4,0 0,-4z M90,26l4,0 0,4 -4,0 0,-4z M98,26l4,0 0,4 -4,0 0,-4z M106,26l4,0 0,4 -4,0 0,-4z M110,26l4,0 0,4 -4,0 0,-4z M114,26l4,0 0,4 -4,0 0,-4z M118,26l4,0 0,4 -4,0 0,-4z M122,26l4,0 0,4 -4,0 0,-4z M126,26l4,0 0,4 -4,0 0,-4z M130,26l4,0 0,4 -4,0 0,-4z M42,30l4,0 0,4 -4,0 0,-4z M46,30l4,0 0,4 -4,0 0,-4z M62,30l4,0 0,4 -4,0 0,-4z M78,30l4,0 0,4 -4,0 0,-4z M82,30l4,0 0,4 -4,0 0,-4z M2,34l4,0 0,4 -4,0 0,-4z M6,34l4,0 0,4 -4,0 0,-4z M22,34l4,0 0,4 -4,0 0,-4z M26,34l4,0 0,4 -4,0 0,-4z M30,34l4,0 0,4 -4,0 0,-4z M38,34l4,0 0,4 -4,0 0,-4z M46,34l4,0 0,4 -4,0 0,-4z M62,34l4,0 0,4 -4,0 0,-4z M78,34l4,0 0,4 -4,0 0,-4z M82,34l4,0 0,4 -4,0 0,-4z M94,34l4,0 0,4 -4,0 0,-4z M98,34l4,0 0,4 -4,0 0,-4z M114,34l4,0 0,4 -4,0 0,-4z M118,34l4,0 0,4 -4,0 0,-4z M10,38l4,0 0,4 -4,0 0,-4z M14,38l4,0 0,4 -4,0 0,-4z M18,38l4,0 0,4 -4,0 0,-4z M38,38l4,0 0,4 -4,0 0,-4z M50,38l4,0 0,4 -4,0 0,-4z M54,38l4,0 0,4 -4,0 0,-4z M58,38l4,0 0,4 -4,0 0,-4z M62,38l4,0 0,4 -4,0 0,-4z M70,38l4,0 0,4 -4,0 0,-4z M74,38l4,0 0,4 -4,0 0,-4z M78,38l4,0 0,4 -4,0 0,-4z M82,38l4,0 0,4 -4,0 0,-4z M86,38l4,0 0,4 -4,0 0,-4z M90,38l4,0 0,4 -4,0 0,-4z M94,38l4,0 0,4 -4,0 0,-4z M102,38l4,0 0,4 -4,0 0,-4z M110,38l4,0 0,4 -4,0 0,-4z M114,38l4,0 0,4 -4,0 0,-4z M122,38l4,0 0,4 -4,0 0,-4z M126,38l4,0 0,4 -4,0 0,-4z M2,42l4,0 0,4 -4,0 0,-4z M14,42l4,0 0,4 -4,0 0,-4z M18,42l4,0 0,4 -4,0 0,-4z M26,42l4,0 0,4 -4,0 0,-4z M34,42l4,0 0,4 -4,0 0,-4z M42,42l4,0 0,4 -4,0 0,-4z M54,42l4,0 0,4 -4,0 0,-4z M58,42l4,0 0,4 -4,0 0,-4z M62,42l4,0 0,4 -4,0 0,-4z M66,42l4,0 0,4 -4,0 0,-4z M70,42l4,0 0,4 -4,0 0,-4z M82,42l4,0 0,4 -4,0 0,-4z M90,42l4,0 0,4 -4,0 0,-4z M102,42l4,0 0,4 -4,0 0,-4z M118,42l4,0 0,4 -4,0 0,-4z M126,42l4,0 0,4 -4,0 0,-4z M6,46l4,0 0,4 -4,0 0,-4z M18,46l4,0 0,4 -4,0 0,-4z M30,46l4,0 0,4 -4,0 0,-4z M34,46l4,0 0,4 -4,0 0,-4z M38,46l4,0 0,4 -4,0 0,-4z M50,46l4,0 0,4 -4,0 0,-4z M54,46l4,0 0,4 -4,0 0,-4z M74,46l4,0 0,4 -4,0 0,-4z M90,46l4,0 0,4 -4,0 0,-4z M110,46l4,0 0,4 -4,0 0,-4z M122,46l4,0 0,4 -4,0 0,-4z M10,50l4,0 0,4 -4,0 0,-4z M14,50l4,0 0,4 -4,0 0,-4z M18,50l4,0 0,4 -4,0 0,-4z M26,50l4,0 0,4 -4,0 0,-4z M38,50l4,0 0,4 -4,0 0,-4z M46,50l4,0 0,4 -4,0 0,-4z M50,50l4,0 0,4 -4,0 0,-4z M54,50l4,0 0,4 -4,0 0,-4z M62,50l4,0 0,4 -4,0 0,-4z M94,50l4,0 0,4 -4,0 0,-4z M98,50l4,0 0,4 -4,0 0,-4z M106,50l4,0 0,4 -4,0 0,-4z M126,50l4,0 0,4 -4,0 0,-4z M130,50l4,0 0,4 -4,0 0,-4z M14,54l4,0 0,4 -4,0 0,-4z M18,54l4,0 0,4 -4,0 0,-4z M34,54l4,0 0,4 -4,0 0,-4z M66,54l4,0 0,4 -4,0 0,-4z M70,54l4,0 0,4 -4,0 0,-4z M74,54l4,0 0,4 -4,0 0,-4z M82,54l4,0 0,4 -4,0 0,-4z M90,54l4,0 0,4 -4,0 0,-4z M94,54l4,0 0,4 -4,0 0,-4z M102,54l4,0 0,4 -4,0 0,-4z M106,54l4,0 0,4 -4,0 0,-4z M110,54l4,0 0,4 -4,0 0,-4z M126,54l4,0 0,4 -4,0 0,-4z M130,54l4,0 0,4 -4,0 0,-4z M6,58l4,0 0,4 -4,0 0,-4z M14,58l4,0 0,4 -4,0 0,-4z M18,58l4,0 0,4 -4,0 0,-4z M26,58l4,0 0,4 -4,0 0,-4z M34,58l4,0 0,4 -4,0 0,-4z M42,58l4,0 0,4 -4,0 0,-4z M46,58l4,0 0,4 -4,0 0,-4z M50,58l4,0 0,4 -4,0 0,-4z M62,58l4,0 0,4 -4,0 0,-4z M70,58l4,0 0,4 -4,0 0,-4z M74,58l4,0 0,4 -4,0 0,-4z M82,58l4,0 0,4 -4,0 0,-4z M102,58l4,0 0,4 -4,0 0,-4z M114,58l4,0 0,4 -4,0 0,-4z M126,58l4,0 0,4 -4,0 0,-4z M18,62l4,0 0,4 -4,0 0,-4z M22,62l4,0 0,4 -4,0 0,-4z M30,62l4,0 0,4 -4,0 0,-4z M42,62l4,0 0,4 -4,0 0,-4z M46,62l4,0 0,4 -4,0 0,-4z M62,62l4,0 0,4 -4,0 0,-4z M66,62l4,0 0,4 -4,0 0,-4z M74,62l4,0 0,4 -4,0 0,-4z M78,62l4,0 0,4 -4,0 0,-4z M94,62l4,0 0,4 -4,0 0,-4z M102,62l4,0 0,4 -4,0 0,-4z M106,62l4,0 0,4 -4,0 0,-4z M110,62l4,0 0,4 -4,0 0,-4z M122,62l4,0 0,4 -4,0 0,-4z M130,62l4,0 0,4 -4,0 0,-4z M2,66l4,0 0,4 -4,0 0,-4z M10,66l4,0 0,4 -4,0 0,-4z M22,66l4,0 0,4 -4,0 0,-4z M26,66l4,0 0,4 -4,0 0,-4z M42,66l4,0 0,4 -4,0 0,-4z M46,66l4,0 0,4 -4,0 0,-4z M66,66l4,0 0,4 -4,0 0,-4z M70,66l4,0 0,4 -4,0 0,-4z M90,66l4,0 0,4 -4,0 0,-4z M94,66l4,0 0,4 -4,0 0,-4z M98,66l4,0 0,4 -4,0 0,-4z M102,66l4,0 0,4 -4,0 0,-4z M110,66l4,0 0,4 -4,0 0,-4z M114,66l4,0 0,4 -4,0 0,-4z M126,66l4,0 0,4 -4,0 0,-4z M10,70l4,0 0,4 -4,0 0,-4z M14,70l4,0 0,4 -4,0 0,-4z M18,70l4,0 0,4 -4,0 0,-4z M42,70l4,0 0,4 -4,0 0,-4z M50,70l4,0 0,4 -4,0 0,-4z M54,70l4,0 0,4 -4,0 0,-4z M58,70l4,0 0,4 -4,0 0,-4z M62,70l4,0 0,4 -4,0 0,-4z M66,70l4,0 0,4 -4,0 0,-4z M78,70l4,0 0,4 -4,0 0,-4z M82,70l4,0 0,4 -4,0 0,-4z M94,70l4,0 0,4 -4,0 0,-4z M98,70l4,0 0,4 -4,0 0,-4z M106,70l4,0 0,4 -4,0 0,-4z M110,70l4,0 0,4 -4,0 0,-4z M118,70l4,0 0,4 -4,0 0,-4z M126,70l4,0 0,4 -4,0 0,-4z M130,70l4,0 0,4 -4,0 0,-4z M10,74l4,0 0,4 -4,0 0,-4z M22,74l4,0 0,4 -4,0 0,-4z M26,74l4,0 0,4 -4,0 0,-4z M30,74l4,0 0,4 -4,0 0,-4z M34,74l4,0 0,4 -4,0 0,-4z M46,74l4,0 0,4 -4,0 0,-4z M62,74l4,0 0,4 -4,0 0,-4z M74,74l4,0 0,4 -4,0 0,-4z M78,74l4,0 0,4 -4,0 0,-4z M82,74l4,0 0,4 -4,0 0,-4z M86,74l4,0 0,4 -4,0 0,-4z M94,74l4,0 0,4 -4,0 0,-4z M102,74l4,0 0,4 -4,0 0,-4z M106,74l4,0 0,4 -4,0 0,-4z M114,74l4,0 0,4 -4,0 0,-4z M130,74l4,0 0,4 -4,0 0,-4z M6,78l4,0 0,4 -4,0 0,-4z M18,78l4,0 0,4 -4,0 0,-4z M22,78l4,0 0,4 -4,0 0,-4z M30,78l4,0 0,4 -4,0 0,-4z M34,78l4,0 0,4 -4,0 0,-4z M42,78l4,0 0,4 -4,0 0,-4z M50,78l4,0 0,4 -4,0 0,-4z M54,78l4,0 0,4 -4,0 0,-4z M62,78l4,0 0,4 -4,0 0,-4z M74,78l4,0 0,4 -4,0 0,-4z M78,78l4,0 0,4 -4,0 0,-4z M90,78l4,0 0,4 -4,0 0,-4z M106,78l4,0 0,4 -4,0 0,-4z M114,78l4,0 0,4 -4,0 0,-4z M122,78l4,0 0,4 -4,0 0,-4z M2,82l4,0 0,4 -4,0 0,-4z M10,82l4,0 0,4 -4,0 0,-4z M14,82l4,0 0,4 -4,0 0,-4z M18,82l4,0 0,4 -4,0 0,-4z M22,82l4,0 0,4 -4,0 0,-4z M26,82l4,0 0,4 -4,0 0,-4z M30,82l4,0 0,4 -4,0 0,-4z M42,82l4,0 0,4 -4,0 0,-4z M50,82l4,0 0,4 -4,0 0,-4z M58,82l4,0 0,4 -4,0 0,-4z M62,82l4,0 0,4 -4,0 0,-4z M78,82l4,0 0,4 -4,0 0,-4z M86,82l4,0 0,4 -4,0 0,-4z M90,82l4,0 0,4 -4,0 0,-4z M94,82l4,0 0,4 -4,0 0,-4z M98,82l4,0 0,4 -4,0 0,-4z M102,82l4,0 0,4 -4,0 0,-4z M114,82l4,0 0,4 -4,0 0,-4z M126,82l4,0 0,4 -4,0 0,-4z M2,86l4,0 0,4 -4,0 0,-4z M10,86l4,0 0,4 -4,0 0,-4z M30,86l4,0 0,4 -4,0 0,-4z M38,86l4,0 0,4 -4,0 0,-4z M58,86l4,0 0,4 -4,0 0,-4z M62,86l4,0 0,4 -4,0 0,-4z M74,86l4,0 0,4 -4,0 0,-4z M86,86l4,0 0,4 -4,0 0,-4z M90,86l4,0 0,4 -4,0 0,-4z M94,86l4,0 0,4 -4,0 0,-4z M110,86l4,0 0,4 -4,0 0,-4z M114,86l4,0 0,4 -4,0 0,-4z M118,86l4,0 0,4 -4,0 0,-4z M126,86l4,0 0,4 -4,0 0,-4z M2,90l4,0 0,4 -4,0 0,-4z M10,90l4,0 0,4 -4,0 0,-4z M14,90l4,0 0,4 -4,0 0,-4z M26,90l4,0 0,4 -4,0 0,-4z M38,90l4,0 0,4 -4,0 0,-4z M46,90l4,0 0,4 -4,0 0,-4z M50,90l4,0 0,4 -4,0 0,-4z M62,90l4,0 0,4 -4,0 0,-4z M82,90l4,0 0,4 -4,0 0,-4z M102,90l4,0 0,4 -4,0 0,-4z M110,90l4,0 0,4 -4,0 0,-4z M114,90l4,0 0,4 -4,0 0,-4z M118,90l4,0 0,4 -4,0 0,-4z M126,90l4,0 0,4 -4,0 0,-4z M2,94l4,0 0,4 -4,0 0,-4z M18,94l4,0 0,4 -4,0 0,-4z M22,94l4,0 0,4 -4,0 0,-4z M30,94l4,0 0,4 -4,0 0,-4z M34,94l4,0 0,4 -4,0 0,-4z M38,94l4,0 0,4 -4,0 0,-4z M42,94l4,0 0,4 -4,0 0,-4z M46,94l4,0 0,4 -4,0 0,-4z M58,94l4,0 0,4 -4,0 0,-4z M74,94l4,0 0,4 -4,0 0,-4z M82,94l4,0 0,4 -4,0 0,-4z M90,94l4,0 0,4 -4,0 0,-4z M94,94l4,0 0,4 -4,0 0,-4z M102,94l4,0 0,4 -4,0 0,-4z M110,94l4,0 0,4 -4,0 0,-4z M114,94l4,0 0,4 -4,0 0,-4z M118,94l4,0 0,4 -4,0 0,-4z M122,94l4,0 0,4 -4,0 0,-4z M2,98l4,0 0,4 -4,0 0,-4z M6,98l4,0 0,4 -4,0 0,-4z M18,98l4,0 0,4 -4,0 0,-4z M26,98l4,0 0,4 -4,0 0,-4z M30,98l4,0 0,4 -4,0 0,-4z M34,98l4,0 0,4 -4,0 0,-4z M54,98l4,0 0,4 -4,0 0,-4z M58,98l4,0 0,4 -4,0 0,-4z M62,98l4,0 0,4 -4,0 0,-4z M70,98l4,0 0,4 -4,0 0,-4z M82,98l4,0 0,4 -4,0 0,-4z M86,98l4,0 0,4 -4,0 0,-4z M98,98l4,0 0,4 -4,0 0,-4z M102,98l4,0 0,4 -4,0 0,-4z M106,98l4,0 0,4 -4,0 0,-4z M110,98l4,0 0,4 -4,0 0,-4z M114,98l4,0 0,4 -4,0 0,-4z M126,98l4,0 0,4 -4,0 0,-4z M34,102l4,0 0,4 -4,0 0,-4z M38,102l4,0 0,4 -4,0 0,-4z M42,102l4,0 0,4 -4,0 0,-4z M50,102l4,0 0,4 -4,0 0,-4z M54,102l4,0 0,4 -4,0 0,-4z M58,102l4,0 0,4 -4,0 0,-4z M66,102l4,0 0,4 -4,0 0,-4z M70,102l4,0 0,4 -4,0 0,-4z M74,102l4,0 0,4 -4,0 0,-4z M82,102l4,0 0,4 -4,0 0,-4z M86,102l4,0 0,4 -4,0 0,-4z M98,102l4,0 0,4 -4,0 0,-4z M114,102l4,0 0,4 -4,0 0,-4z M118,102l4,0 0,4 -4,0 0,-4z M122,102l4,0 0,4 -4,0 0,-4z M130,102l4,0 0,4 -4,0 0,-4z M2,106l4,0 0,4 -4,0 0,-4z M6,106l4,0 0,4 -4,0 0,-4z M10,106l4,0 0,4 -4,0 0,-4z M14,106l4,0 0,4 -4,0 0,-4z M18,106l4,0 0,4 -4,0 0,-4z M22,106l4,0 0,4 -4,0 0,-4z M26,106l4,0 0,4 -4,0 0,-4z M34,106l4,0 0,4 -4,0 0,-4z M42,106l4,0 0,4 -4,0 0,-4z M54,106l4,0 0,4 -4,0 0,-4z M58,106l4,0 0,4 -4,0 0,-4z M62,106l4,0 0,4 -4,0 0,-4z M66,106l4,0 0,4 -4,0 0,-4z M70,106l4,0 0,4 -4,0 0,-4z M74,106l4,0 0,4 -4,0 0,-4z M90,106l4,0 0,4 -4,0 0,-4z M94,106l4,0 0,4 -4,0 0,-4z M98,106l4,0 0,4 -4,0 0,-4z M106,106l4,0 0,4 -4,0 0,-4z M114,106l4,0 0,4 -4,0 0,-4z M118,106l4,0 0,4 -4,0 0,-4z M126,106l4,0 0,4 -4,0 0,-4z M2,110l4,0 0,4 -4,0 0,-4z M26,110l4,0 0,4 -4,0 0,-4z M34,110l4,0 0,4 -4,0 0,-4z M50,110l4,0 0,4 -4,0 0,-4z M54,110l4,0 0,4 -4,0 0,-4z M58,110l4,0 0,4 -4,0 0,-4z M62,110l4,0 0,4 -4,0 0,-4z M74,110l4,0 0,4 -4,0 0,-4z M78,110l4,0 0,4 -4,0 0,-4z M94,110l4,0 0,4 -4,0 0,-4z M98,110l4,0 0,4 -4,0 0,-4z M114,110l4,0 0,4 -4,0 0,-4z M118,110l4,0 0,4 -4,0 0,-4z M122,110l4,0 0,4 -4,0 0,-4z M126,110l4,0 0,4 -4,0 0,-4z M130,110l4,0 0,4 -4,0 0,-4z M2,114l4,0 0,4 -4,0 0,-4z M10,114l4,0 0,4 -4,0 0,-4z M14,114l4,0 0,4 -4,0 0,-4z M18,114l4,0 0,4 -4,0 0,-4z M26,114l4,0 0,4 -4,0 0,-4z M50,114l4,0 0,4 -4,0 0,-4z M58,114l4,0 0,4 -4,0 0,-4z M82,114l4,0 0,4 -4,0 0,-4z M90,114l4,0 0,4 -4,0 0,-4z M98,114l4,0 0,4 -4,0 0,-4z M102,114l4,0 0,4 -4,0 0,-4z M106,114l4,0 0,4 -4,0 0,-4z M110,114l4,0 0,4 -4,0 0,-4z M114,114l4,0 0,4 -4,0 0,-4z M118,114l4,0 0,4 -4,0 0,-4z M126,114l4,0 0,4 -4,0 0,-4z M130,114l4,0 0,4 -4,0 0,-4z M2,118l4,0 0,4 -4,0 0,-4z M10,118l4,0 0,4 -4,0 0,-4z M14,118l4,0 0,4 -4,0 0,-4z M18,118l4,0 0,4 -4,0 0,-4z M26,118l4,0 0,4 -4,0 0,-4z M38,118l4,0 0,4 -4,0 0,-4z M42,118l4,0 0,4 -4,0 0,-4z M62,118l4,0 0,4 -4,0 0,-4z M66,118l4,0 0,4 -4,0 0,-4z M82,118l4,0 0,4 -4,0 0,-4z M90,118l4,0 0,4 -4,0 0,-4z M94,118l4,0 0,4 -4,0 0,-4z M114,118l4,0 0,4 -4,0 0,-4z M118,118l4,0 0,4 -4,0 0,-4z M122,118l4,0 0,4 -4,0 0,-4z M126,118l4,0 0,4 -4,0 0,-4z M130,118l4,0 0,4 -4,0 0,-4z M2,122l4,0 0,4 -4,0 0,-4z M10,122l4,0 0,4 -4,0 0,-4z M14,122l4,0 0,4 -4,0 0,-4z M18,122l4,0 0,4 -4,0 0,-4z M26,122l4,0 0,4 -4,0 0,-4z M50,122l4,0 0,4 -4,0 0,-4z M54,122l4,0 0,4 -4,0 0,-4z M58,122l4,0 0,4 -4,0 0,-4z M62,122l4,0 0,4 -4,0 0,-4z M74,122l4,0 0,4 -4,0 0,-4z M78,122l4,0 0,4 -4,0 0,-4z M86,122l4,0 0,4 -4,0 0,-4z M90,122l4,0 0,4 -4,0 0,-4z M94,122l4,0 0,4 -4,0 0,-4z M98,122l4,0 0,4 -4,0 0,-4z M102,122l4,0 0,4 -4,0 0,-4z M110,122l4,0 0,4 -4,0 0,-4z M114,122l4,0 0,4 -4,0 0,-4z M126,122l4,0 0,4 -4,0 0,-4z M130,122l4,0 0,4 -4,0 0,-4z M2,126l4,0 0,4 -4,0 0,-4z M26,126l4,0 0,4 -4,0 0,-4z M34,126l4,0 0,4 -4,0 0,-4z M38,126l4,0 0,4 -4,0 0,-4z M46,126l4,0 0,4 -4,0 0,-4z M58,126l4,0 0,4 -4,0 0,-4z M62,126l4,0 0,4 -4,0 0,-4z M74,126l4,0 0,4 -4,0 0,-4z M82,126l4,0 0,4 -4,0 0,-4z M90,126l4,0 0,4 -4,0 0,-4z M102,126l4,0 0,4 -4,0 0,-4z M106,126l4,0 0,4 -4,0 0,-4z M110,126l4,0 0,4 -4,0 0,-4z M114,126l4,0 0,4 -4,0 0,-4z M118,126l4,0 0,4 -4,0 0,-4z M122,126l4,0 0,4 -4,0 0,-4z M2,130l4,0 0,4 -4,0 0,-4z M6,130l4,0 0,4 -4,0 0,-4z M10,130l4,0 0,4 -4,0 0,-4z M14,130l4,0 0,4 -4,0 0,-4z M18,130l4,0 0,4 -4,0 0,-4z M22,130l4,0 0,4 -4,0 0,-4z M26,130l4,0 0,4 -4,0 0,-4z M34,130l4,0 0,4 -4,0 0,-4z M38,130l4,0 0,4 -4,0 0,-4z M46,130l4,0 0,4 -4,0 0,-4z M70,130l4,0 0,4 -4,0 0,-4z M78,130l4,0 0,4 -4,0 0,-4z M94,130l4,0 0,4 -4,0 0,-4z M98,130l4,0 0,4 -4,0 0,-4z M106,130l4,0 0,4 -4,0 0,-4z M118,130l4,0 0,4 -4,0 0,-4z M126,130l4,0 0,4 -4,0 0,-4z " stroke="transparent" fill="black"/></svg>